<svg width="16" height="16" viewBox="0 0 16 16" fill="none" xmlns="http://www.w3.org/2000/svg">
<path d="M2.92326 11.4188C3.05648 12.6846 3.1231 13.3175 3.4126 13.7954C3.6676 14.2163 4.04118 14.5527 4.48653 14.7622C4.99212 15.0001 5.6285 15.0001 6.90128 15.0001H9.09918C10.3719 15.0001 11.0083 15.0001 11.5139 14.7622C11.9592 14.5527 12.3328 14.2164 12.5878 13.7954C12.8773 13.3175 12.944 12.6846 13.0772 11.4189L13.6073 6.38376C13.6395 6.07769 13.6556 5.92466 13.6058 5.8063C13.5622 5.70233 13.4846 5.61619 13.3858 5.56186C13.2733 5.5 13.1194 5.5 12.8117 5.5H3.18891C2.88116 5.5 2.72729 5.5 2.61478 5.56186C2.51597 5.61619 2.43842 5.70233 2.39473 5.80629C2.34499 5.92465 2.3611 6.07768 2.39331 6.38374L2.92326 11.4188Z" fill="#99A2AD"/>
<path d="M2 4H14C14.5523 4 15 3.55229 15 3.00002C15 2.44772 14.5523 2 14 2H10.6465C10.32 0.845748 9.25878 0 8 0C6.74122 0 5.67998 0.845748 5.35352 2H2C1.44772 2 1 2.44772 1 3C1 3.55228 1.44772 4 2 4Z" fill="#99A2AD"/>
</svg>
