<svg width="16" height="16" viewBox="0 0 16 16" fill="none" xmlns="http://www.w3.org/2000/svg">
<path fill-rule="evenodd" clip-rule="evenodd" d="M12.5 7C12.5 8.7722 11.3599 10.5947 9.93654 12.1265C9.32047 12.7895 9.01142 13.1103 8.72712 13.3055C8.53719 13.4359 8.36508 13.507 8 13.507C7.63492 13.507 7.46281 13.4359 7.27288 13.3055C6.98858 13.1103 6.67953 12.7895 6.06346 12.1265C4.64007 10.5947 3.5 8.7722 3.5 7C3.5 4.72823 5.3192 2.5 8 2.5C10.6808 2.5 12.5 4.72823 12.5 7ZM14 7C14 9.362 12.5235 11.5461 11.0354 13.1476C9.88351 14.3872 9.30759 15 8 15C6.69241 15 6.11648 14.3872 4.96463 13.1476C3.47651 11.5461 2 9.362 2 7C2 4 4.39401 1 8 1C11.606 1 14 4 14 7ZM8 5C6.89543 5 6 5.89543 6 7C6 8.10457 6.89543 9 8 9C9.10457 9 10 8.10457 10 7C10 5.89543 9.10457 5 8 5Z" fill="#99A2AD"/>
</svg>
