<svg width="16" height="16" viewBox="0 0 16 16" fill="none" xmlns="http://www.w3.org/2000/svg">
<path d="M3 6C3 5.44772 3.44772 5 4 5C4.55228 5 5 5.44772 5 6V12C5 12.5523 4.55228 13 4 13C3.44772 13 3 12.5523 3 12V6Z" fill="#99A2AD"/>
<path d="M7 2C7 1.44772 7.44772 1 8 1C8.55228 1 9 1.44772 9 2V12C9 12.5523 8.55228 13 8 13C7.44772 13 7 12.5523 7 12V2Z" fill="#99A2AD"/>
<path d="M11 8C11 7.44772 11.4477 7 12 7C12.5523 7 13 7.44772 13 8V12C13 12.5523 12.5523 13 12 13C11.4477 13 11 12.5523 11 12V8Z" fill="#99A2AD"/>
</svg>
