<svg width="56" height="56" viewBox="0 0 56 56" fill="none" xmlns="http://www.w3.org/2000/svg">
<path d="M31.3247 8.38086C31.8786 8.38086 32.4145 8.57783 32.8365 8.93657L53.1716 26.2214C54.1539 27.0564 54.2734 28.5296 53.4384 29.5119C53.3568 29.6078 53.2676 29.6971 53.1716 29.7787L32.8365 47.0635C31.8542 47.8984 30.381 47.779 29.5461 46.7967L29.4325 46.6519C29.146 46.2553 28.9904 45.7772 28.9904 45.2849L28.9904 36.813L28.6635 36.8196C18.0799 37.0647 10.5792 39.4727 6.11541 43.9522L5.85986 44.2144C5.10763 45.002 3.84157 45.031 3.04281 44.268C2.53387 43.7818 2.31791 43.064 2.47413 42.3777L2.58293 41.9103C6.01319 27.4942 14.8039 19.8466 28.6727 19.2404L28.9904 19.228L28.9904 10.7152C28.9904 9.42597 30.0355 8.38086 31.3247 8.38086ZM50.6324 28L31.9904 12.154L31.9904 20.7013C31.9904 21.5297 31.3188 22.2013 30.4904 22.2013L30.0472 22.2037C17.8382 22.3379 10.0186 28.043 6.34592 39.5533L6.24137 39.889L6.45132 39.7334C11.9167 35.7517 19.9387 33.7988 30.4904 33.7988L30.6348 33.8056C31.3955 33.8783 31.9904 34.5191 31.9904 35.2988L31.9904 43.845L50.6324 28Z" fill="#3F8AE0"/>
</svg>
