<svg width="56" height="56" viewBox="0 0 56 56" fill="none" xmlns="http://www.w3.org/2000/svg">
<path d="M45 19.5C45 15.9084 42.0916 13 38.5 13C34.9084 13 32 15.9084 32 19.5C32 23.0916 34.9084 26 38.5 26C42.0916 26 45 23.0916 45 19.5ZM48 19.5C48 24.7484 43.7484 29 38.5 29C33.2516 29 29 24.7484 29 19.5C29 14.2516 33.2516 10 38.5 10C43.7484 10 48 14.2516 48 19.5ZM25.5 41.0714C25.5 43.0034 25.4969 43 26.6471 43H51.3529C52.5031 43 52.5 43.0034 52.5 41.0714C52.5 36.5654 46.338 34 39 34C31.662 34 25.5 36.5654 25.5 41.0714ZM39 31C47.8384 31 55.5 34.1897 55.5 41.0714C55.5 44.6037 54.2224 46 51.3529 46H26.6471C23.7776 46 22.5 44.6037 22.5 41.0714C22.5 34.1897 30.1616 31 39 31ZM11.5 14C12.3284 14 13 14.6716 13 15.5V24H21.5C22.3284 24 23 24.6716 23 25.5C23 26.3284 22.3284 27 21.5 27H13V35.5C13 36.3284 12.3284 37 11.5 37C10.6716 37 10 36.3284 10 35.5V27H1.5C0.671573 27 0 26.3284 0 25.5C0 24.6716 0.671573 24 1.5 24H10V15.5C10 14.6716 10.6716 14 11.5 14Z" fill="#3F8AE0"/>
</svg>
