<svg width="1280" height="630" viewBox="0 0 1280 630" fill="none" xmlns="http://www.w3.org/2000/svg">
<path d="M658.6 56.2C659.2 108.8 658.3 154.6 656.1 177L655.5 183.5L623.5 185.2C581.4 187.4 377.6 198.2 299.8 202.4L238.5 205.6L231.5 199.4C227.7 195.9 219.7 188.4 213.7 182.8L202.9 172.5L200.8 153.9L198.6 135.2L188 134.1C182.2 133.4 175.4 132.7 172.8 132.3L168 131.7V135.4C168 137.4 167.7 139 167.4 139C167 139 162.8 135.2 158.1 130.6C133.7 106.9 59.6998 38 58.6998 38C55.7998 38 10.6998 44 10.1998 44.4C9.99981 44.7 29.7998 84.2 54.3998 132.1C82.9998 188.2 98.5998 219.6 97.8998 220.1C97.2998 220.4 93.5998 221 89.5998 221.4C82.0998 222.1 72.9998 224.5 66.7998 227.5C62.2998 229.7 61.4998 232.4 62.1998 243.8C62.8998 255.8 67.0998 262.1 78.2998 268C80.8998 269.4 82.9998 270.7 82.9998 271C82.9998 271.3 64.2998 285.2 41.5998 302C5.39981 328.6 -2.50019 335 0.799814 335C1.19981 335 12.2998 333.7 25.4998 332L49.5998 329L74.4998 317.4C88.2998 311.1 107.7 302 117.7 297.4L136 288.9L146.7 292.4C166.5 298.8 265.6 324.7 278.5 326.9C288.8 328.6 318.1 330.8 387 335C490.4 341.2 529 344.1 538 346.1C540.5 346.7 546.9 347.7 552.3 348.3L562.2 349.5L550.2 367.5C526.3 403.4 538.6 391.5 403 511C336.2 569.9 281.4 618.5 281.2 618.9C280.7 620.4 286.2 626 290.1 628C294.7 630.4 302.6 630.6 309.6 628.5C312.4 627.7 318.9 624.5 324.1 621.4C347.1 607.5 424.9 555.6 524.4 487.6C561.7 462.2 569.8 457 571.9 457.4C573.3 457.7 585 460.2 597.9 463C640.5 472.3 659.5 474.6 700.5 475.9C728.7 476.8 730.2 476.6 734.6 470.1C742.6 458.4 745.9 427 740.6 412.4C738.5 406.4 732.5 397.7 729.1 395.7C724.4 393 713.5 391.9 701.3 393C689.1 394.2 684.8 394.8 663.1 399.1C654.7 400.7 647.6 402 647.5 401.8C647.4 401.6 661.9 390 679.9 376L712.5 350.5L726 349.9C734.3 349.4 744.5 348.1 752.4 346.5C766.5 343.6 794.4 335.9 808 331.1C814.9 328.7 819.3 328 831.5 327.1C864.4 324.7 914.2 322.8 1055.5 318.5C1122.7 316.4 1152.4 315.1 1159.5 313.9C1168.4 312.4 1190.2 306.6 1210.2 300.5C1258.6 285.6 1280.1 273 1280 259.5C1279.9 252.5 1277.2 240.1 1275 236.5C1270.9 229.9 1263 224.1 1247.5 216.4C1235.2 210.4 1230.4 207.4 1221.5 200C1199.2 181.6 1186.1 174.8 1165 170.6C1145.5 166.7 1094.4 162 1072.3 162C1062.5 162 1004.9 164.9 806.1 175.5C780 176.9 758.3 177.7 757.9 177.3C757.5 176.9 752.8 163 747.5 146.5C719.9 60.9 703.8 11.4 703 10C702.5 9.10004 695.3 7.10004 681.8 4.30004C670.7 2.00004 660.7 0.100039 659.7 3.94412e-05C658 3.94412e-05 657.9 2.60004 658.6 56.2Z" fill="#A8B8C8"/>
</svg>
